<?xml version="1.0" encoding="utf-8"?>
<!-- Generator: Adobe Illustrator 24.1.2, SVG Export Plug-In . SVG Version: 6.00 Build 0)  -->
<svg version="1.1" id="Capa_1" xmlns="http://www.w3.org/2000/svg" xmlns:xlink="http://www.w3.org/1999/xlink" x="0px" y="0px"
	 viewBox="0 0 1485.4 203.1" style="enable-background:new 0 0 1485.4 203.1;" xml:space="preserve">
<style type="text/css">
	.st0{fill:#FFFFFF;}
</style>
<g>
	<g>
		<g>
			<path class="st0" d="M32.5,142.3c3.1,0,5.8-1.9,8-5.6c20.2-35.9,30.7-54.5,31.6-56L51.9,45.6c-2.1-3.7-4.8-5.5-8.1-5.5H14.5
				c-1.9,0-3.2,0.6-3.9,1.8c-0.9,1.2-0.9,2.7,0.1,4.5l19.8,34.3c0.1,0.1,0.1,0.1,0,0.1l-31.1,55c-0.8,1.6-0.8,3,0,4.4
				c0.8,1.4,2.1,2.1,3.8,2.1H32.5z"/>
			<path class="st0" d="M167.2,0h-29.6c-3.2,0-5.8,1.8-7.9,5.5C87.8,80,66,118.6,64.6,121.2l41.6,76.4c2,3.7,4.7,5.5,8.1,5.5h29.3
				c1.8,0,3.1-0.6,3.9-1.8c0.8-1.4,0.8-2.9-0.1-4.5l-41.3-75.5v-0.1L171,6.4c0.9-1.7,0.9-3.2,0-4.5C170.3,0.6,169,0,167.2,0z"/>
		</g>
	</g>
	<g>
		<path class="st0" d="M403.3,31c9.7,0,18.6,1.6,26.8,4.8c8.2,3.2,15.3,7.8,21.2,13.7c5.9,6,10.6,13.4,14,22.2
			c3.4,8.8,5.1,18.8,5.1,30.1c0,11-1.7,20.8-5.2,29.4c-3.5,8.7-8.2,16-14.3,22.1c-6.1,6.1-13.2,10.7-21.5,14
			c-8.3,3.2-17.3,4.9-27,4.9c-9.7,0-18.6-1.6-26.8-4.7c-8.2-3.1-15.3-7.6-21.2-13.6c-5.9-6-10.6-13.3-14-22.1
			c-3.4-8.7-5.1-18.7-5.1-30c0-11,1.7-20.8,5.2-29.5c3.5-8.7,8.2-16.2,14.3-22.3c6.1-6.1,13.2-10.8,21.5-14.1
			C384.6,32.6,393.6,31,403.3,31z M366.7,101.8c0,8.1,1,15.1,2.9,21.1c1.9,6,4.6,11,7.9,14.9c3.3,4,7.2,6.9,11.6,8.9
			c4.4,1.9,9.1,2.9,14.2,2.9c4.9,0,9.6-1,14-2.9c4.4-1.9,8.2-4.9,11.4-8.9c3.2-4,5.7-8.9,7.6-14.9c1.9-6,2.8-13,2.8-21.1
			c0-8.4-1-15.6-2.9-21.6s-4.6-11.1-7.9-15c-3.3-4-7.2-6.9-11.6-8.8c-4.4-1.9-9.1-2.8-14.2-2.8c-5.1,0-9.7,1-14.1,3
			c-4.3,2-8.1,5-11.3,9c-3.2,4-5.7,9-7.6,15C367.6,86.6,366.7,93.7,366.7,101.8z"/>
		<path class="st0" d="M561.3,149.2c6.6,0,12.3-0.6,16.9-1.7c3.1-0.8,5.9-1.7,8.4-2.9c1.9-0.9,4.1,0.1,4.6,2.1l4.2,15.1
			c0.4,1.6-0.3,3.2-1.8,3.9c-3.2,1.5-7.3,2.9-12.2,4.1c-6.4,1.6-14.1,2.4-23.2,2.4c-10.2,0-19.7-1.6-28.4-4.9
			c-8.7-3.2-16.1-7.9-22.4-14.1c-6.3-6.1-11.1-13.6-14.6-22.3c-3.5-8.7-5.2-18.6-5.2-29.5c0-10.7,1.7-20.3,5.1-29
			c3.4-8.7,8.2-16.1,14.3-22.2c6.1-6.1,13.6-10.9,22.4-14.2c8.8-3.3,18.6-5,29.4-5c9.2,0,16.8,0.9,22.8,2.6c4.7,1.4,8.7,2.8,12,4.3
			c1.5,0.7,2.2,2.4,1.7,4l-4.7,15.4c-0.6,1.9-2.7,2.9-4.5,2.1c-2.8-1.3-5.8-2.4-9.1-3.4c-4.5-1.4-9.6-2.1-15.3-2.1
			c-5.9,0-11.5,0.9-16.7,2.6c-5.2,1.7-9.7,4.5-13.6,8.3c-3.9,3.8-7,8.7-9.2,14.7c-2.2,6-3.4,13.2-3.4,21.8c0,8.2,1.1,15.3,3.2,21.3
			c2.2,6,5.2,10.9,9,14.8c3.8,3.9,8.3,6.8,13.4,8.8C549.8,148.2,555.4,149.2,561.3,149.2z"/>
		<path class="st0" d="M658.2,33.4h26.1c1.4,0,2.6,0.9,3.1,2.2l48,129.7c0.8,2.2-0.8,4.5-3.1,4.5H708c-1.4,0-2.7-0.9-3.1-2.3
			l-9.1-26.9c-0.5-1.4-1.7-2.3-3.1-2.3h-43.7c-1.4,0-2.7,0.9-3.1,2.3l-9.1,26.9c-0.5,1.4-1.7,2.3-3.1,2.3h-23.8
			c-2.3,0-3.9-2.3-3.1-4.5l48.4-129.7C655.5,34.2,656.8,33.4,658.2,33.4z M657.9,116.5h25.3c2.3,0,3.9-2.2,3.1-4.4l-4.8-13.8
			c-2-5.6-3.9-11.3-5.6-17c-1.7-5.7-3.4-11.4-5-17.2h-0.4c-1.6,5.5-3.3,11.1-5.2,16.8c-1.9,5.7-3.8,11.5-5.8,17.4l-4.8,13.8
			C654,114.2,655.6,116.5,657.9,116.5z"/>
		<path class="st0" d="M803.1,33.4c14.4,0,25.8,3.1,34.2,9.3c8.4,6.2,12.6,14.9,12.6,26.2c0,4.2-0.8,7.9-2.3,11.3
			c-1.5,3.3-3.5,6.2-5.8,8.6c-2.4,2.4-5.1,4.4-8,6c0,0-0.1,0-0.1,0c-2.5,1.3-2.4,5,0.3,6c0.7,0.3,1.5,0.6,2.2,1
			c3.5,1.7,6.6,3.9,9.3,6.6c2.7,2.7,4.8,6,6.3,9.8c1.5,3.8,2.3,8.2,2.3,13.1c0,5.6-1.2,10.8-3.7,15.5c-2.5,4.7-6,8.8-10.5,12.2
			c-4.5,3.5-10,6.1-16.5,8c-6.4,1.9-13.5,2.8-21.3,2.8h-44.3c-1.8,0-3.3-1.5-3.3-3.3V36.7c0-1.8,1.5-3.3,3.3-3.3H803.1z M784,84.6
			c0,1.8,1.5,3.3,3.3,3.3h10.7c6.5,0,11.7-1.4,15.5-4.2c3.8-2.8,5.7-7,5.7-12.7c0-5-1.8-8.8-5.3-11.4c-3.5-2.5-8.6-3.8-15.3-3.8
			h-11.4c-1.8,0-3.3,1.5-3.3,3.3V84.6z M784,143.9c0,1.8,1.5,3.3,3.3,3.3h10.7c7.4,0,13.4-1.4,18.2-4.2c4.8-2.8,7.1-7.7,7.1-14.6
			c0-6.5-2.5-11.1-7.6-14c-5.1-2.8-11.3-4.2-18.6-4.2h-9.9c-1.8,0-3.3,1.5-3.3,3.3V143.9z"/>
		<path class="st0" d="M880.6,33.4h23c1.8,0,3.3,1.5,3.3,3.3V115c0,11.3,2.3,19.8,6.8,25.7c4.5,5.8,11.6,8.8,21.1,8.8
			c9.4,0,16.2-3,20.3-8.9c4.2-5.9,6.3-13.6,6.3-22.9V36.7c0-1.8,1.5-3.3,3.3-3.3h23c1.8,0,3.3,1.5,3.3,3.3v78.7
			c0,19-4.7,33.3-14.2,42.6c-9.5,9.4-23.5,14.1-42.1,14.1c-17.9,0-32-4.7-42.2-14.1c-10.2-9.4-15.4-24-15.4-43.7V36.7
			C877.3,34.9,878.8,33.4,880.6,33.4z"/>
		<path class="st0" d="M1024.1,33.4h23c1.8,0,3.3,1.5,3.3,3.3V143c0,1.8,1.5,3.3,3.3,3.3h48.3c1.8,0,3.3,1.5,3.3,3.3v16.7
			c0,1.8-1.5,3.3-3.3,3.3h-78c-1.8,0-3.3-1.5-3.3-3.3V36.7C1020.8,34.9,1022.3,33.4,1024.1,33.4z"/>
		<path class="st0" d="M1163,33.4h26.1c1.4,0,2.6,0.9,3.1,2.2l48,129.7c0.8,2.2-0.8,4.5-3.1,4.5h-24.2c-1.4,0-2.7-0.9-3.1-2.3
			l-9.1-26.9c-0.5-1.4-1.7-2.3-3.1-2.3h-43.7c-1.4,0-2.7,0.9-3.1,2.3l-9.1,26.9c-0.5,1.4-1.7,2.3-3.1,2.3h-23.8
			c-2.3,0-3.9-2.3-3.1-4.5l48.4-129.7C1160.3,34.2,1161.6,33.4,1163,33.4z M1162.7,116.5h25.3c2.3,0,3.9-2.2,3.1-4.4l-4.8-13.8
			c-2-5.6-3.9-11.3-5.6-17c-1.7-5.7-3.4-11.4-5-17.2h-0.4c-1.6,5.5-3.3,11.1-5.2,16.8c-1.9,5.7-3.8,11.5-5.8,17.4l-4.8,13.8
			C1158.8,114.2,1160.4,116.5,1162.7,116.5z"/>
		<path class="st0" d="M1259.1,36.7c0-1.8,1.5-3.3,3.3-3.3h48.4c7.6,0,14.4,1.1,20.2,3.4c5.8,2.2,10.7,5.3,14.6,9.1
			c3.9,3.8,6.8,8.3,8.8,13.4c1.9,5.1,2.9,10.6,2.9,16.6c0,5.5-0.8,10.4-2.5,14.6c-1.7,4.3-3.8,7.9-6.3,11c-2.5,3.1-5.3,5.7-8.4,7.8
			c-2,1.4-4,2.5-5.9,3.6c-1.7,0.9-2.2,3-1.3,4.6l28.4,47.3c1.3,2.2-0.3,5-2.8,5h-26.1c-1.2,0-2.4-0.7-2.9-1.8l-24.3-46.6
			c-0.6-1.1-1.7-1.8-2.9-1.8h-10.5c-1.8,0-3.3,1.5-3.3,3.3v43.6c0,1.8-1.5,3.3-3.3,3.3h-22.8c-1.8,0-3.3-1.5-3.3-3.3V36.7z
			 M1288.6,93.5c0,1.8,1.5,3.3,3.3,3.3h8.4c7.8,0,14.2-1.6,19.2-4.8c5-3.2,7.5-8.4,7.5-15.8c0-6.5-2-11.5-6-15
			c-4-3.5-9.8-5.3-17.4-5.3h-11.6c-1.8,0-3.3,1.5-3.3,3.3V93.5z"/>
		<path class="st0" d="M1398.6,35.1l25.2,46c1.3,2.3,4.6,2.3,5.8,0l25.6-46.1c0.6-1.1,1.7-1.7,2.9-1.7h24.5c2.6,0,4.2,2.8,2.9,5
			l-44.2,74.3c-0.3,0.5-0.5,1.1-0.5,1.7v52c0,1.8-1.5,3.3-3.3,3.3h-23c-1.8,0-3.3-1.5-3.3-3.3v-52.1c0-0.6-0.2-1.2-0.5-1.7
			l-43.4-74.3c-1.3-2.2,0.3-5,2.9-5h25.6C1396.9,33.4,1398,34,1398.6,35.1z"/>
		<path class="st0" d="M324.1,33.4h-23.4c-1.4,0-2.7,0.9-3.2,2.3l-22.2,67.2c-1.9,5.8-3.9,12.2-6.2,19.4c-2.2,7.1-3.9,13.5-5.1,18.9
			h-0.7c-0.6-2.7-1.3-5.8-2.3-9.3c-0.9-3.5-1.9-6.9-2.9-10.4c-1-3.5-2-6.8-3-10.1c-1-3.2-1.9-6-2.6-8.3l-7-21.4
			c-1.2-3.7-6.1-4.5-8.5-1.4l-13,17.5c-1,1.3-1.2,3-0.7,4.5l23.6,65.3c0.5,1.3,1.7,2.2,3.1,2.2h27.6c1.4,0,2.7-0.9,3.1-2.2
			l46.3-129.7C328,35.6,326.4,33.4,324.1,33.4z"/>
	</g>
</g>
</svg>
